<svg xmlns="http://www.w3.org/2000/svg" width="883.071" height="321.945" viewBox="0 0 883.071 321.945">
  <g id="Group_2696" data-name="Group 2696" transform="translate(-518 -277.058)">
    <g id="Group_181" data-name="Group 181" transform="translate(527 45.059)">
      <path id="Path_23" data-name="Path 23" d="M717.657,313.372c-3.945-2.912-8.445-4.762-12.951-6.553-12.63-5.021-25.813-7.911-39.229-9.851a257.934,257.934,0,0,0-32.985-2.6c-1.071-.016-1.508-.038-1.508-.038L612.193,275.2l18.791-19.128s.429-.009,1.291,0c8.24.094,16.455.635,24.639,1.525a202.269,202.269,0,0,1,37.079,7.211c10,3.039,19.707,6.74,28.125,13.117,4.692,3.554,8.634,7.713,9.836,13.772a7.489,7.489,0,0,1,.2,1.439q-.012,18.874-.048,37.75C730.483,322.436,724.477,317.57,717.657,313.372Z" transform="translate(-193.34 23.701)" fill="#ff681b"/>
      <path id="Path_27" data-name="Path 27" d="M713.869,310.657c6.82,4.2,12.826,9.063,14.447,17.515.574,6.252-2.38,10.978-6.686,15.055-7.042,6.668-15.731,10.459-24.678,13.746a133.035,133.035,0,0,1-14.858,4.4c.435-2.578.829-5.007,1.255-7.432a223.582,223.582,0,0,0,3.163-28.556c.034-.617.143-3.491.143-3.491s.844-.232,1.469-.413c8.54-2.453,16.869-5.461,24.566-9.983C713.1,311.254,713.478,310.938,713.869,310.657Z" transform="translate(-189.553 26.416)" fill="#bd5220"/>
      <path id="Path_24" data-name="Path 24" d="M628.96,225.019c-2.925,3.928-4.782,8.409-6.58,12.9-5.042,12.577-7.944,25.7-9.891,39.063a254.176,254.176,0,0,0-2.607,32.848c-.017,1.066-.039,1.5-.039,1.5l-19.216,18.711L571.42,311.326s-.012-.429,0-1.286c.094-8.206.636-16.384,1.531-24.535a200.013,200.013,0,0,1,7.242-36.924c3.051-9.957,6.766-19.623,13.172-28.006,3.569-4.671,7.745-8.6,13.83-9.794a7.536,7.536,0,0,1,1.445-.2q18.954.013,37.909.048C638.061,212.246,633.176,218.227,628.96,225.019Z" transform="translate(-195.548 21.44)" fill="#3fad48"/>
      <path id="Path_25" data-name="Path 25" d="M626,225.02c4.218-6.791,9.1-12.773,17.59-14.386,6.277-.573,11.023,2.369,15.118,6.656,6.7,7.012,10.5,15.666,13.806,24.574a131.854,131.854,0,0,1,4.416,14.795c-2.587-.432-5.027-.824-7.461-1.248a226.488,226.488,0,0,0-28.678-3.15c-.618-.033-3.5-.142-3.5-.142s-.234-.84-.414-1.463c-2.465-8.5-5.484-16.8-10.027-24.463C626.6,225.78,626.286,225.409,626,225.02Z" transform="translate(-192.591 21.437)" fill="#2b8442"/>
      <path id="Path_26" data-name="Path 26" d="M627.077,402.077c2.925-3.927,4.782-8.409,6.581-12.895,5.043-12.577,7.945-25.7,9.892-39.064a254.92,254.92,0,0,0,2.608-32.847c.015-1.065.037-1.5.037-1.5l19.216-18.712,19.208,18.712s.01.429,0,1.286c-.094,8.206-.637,16.385-1.532,24.536a199.936,199.936,0,0,1-7.242,36.924c-3.051,9.956-6.767,19.622-13.171,28.005-3.569,4.671-7.746,8.6-13.831,9.795a7.614,7.614,0,0,1-1.445.2q-18.956-.01-37.91-.048C617.976,414.851,622.862,408.869,627.077,402.077Z" transform="translate(-193.485 25.74)" fill="#01a0e1"/>
      <path id="Path_28" data-name="Path 28" d="M628.791,398.6c-4.215,6.792-9.1,12.773-17.587,14.386-6.279.573-11.025-2.369-15.12-6.656-6.7-7.012-10.5-15.666-13.8-24.575a131.583,131.583,0,0,1-4.418-14.795c2.589.433,5.029.826,7.463,1.248A226.33,226.33,0,0,0,614,371.361c.62.033,3.507.143,3.507.143s.233.838.415,1.462c2.463,8.505,5.483,16.8,10.026,24.464C628.191,397.841,628.508,398.212,628.791,398.6Z" transform="translate(-195.2 29.216)" fill="#0079aa"/>
      <path id="Path_21" data-name="Path 21" d="M540.526,311.835c3.945,2.912,8.445,4.761,12.95,6.552,12.63,5.021,25.814,7.91,39.229,9.85a257.9,257.9,0,0,0,32.985,2.6c1.071.016,1.509.038,1.509.038l18.789,19.135L627.2,369.133s-.431.01-1.292,0c-8.24-.094-16.454-.634-24.639-1.525a202.278,202.278,0,0,1-37.079-7.211c-10-3.039-19.706-6.74-28.124-13.116-4.692-3.554-8.635-7.713-9.836-13.772a7.386,7.386,0,0,1-.2-1.439q.013-18.874.048-37.749C527.7,302.771,533.705,307.637,540.526,311.835Z" transform="translate(-198.007 25.603)" fill="#faa21a"/>
      <path id="Path_22" data-name="Path 22" d="M540.528,313.408c-6.822-4.2-12.827-9.064-14.449-17.515-.573-6.252,2.379-10.978,6.687-15.055,7.042-6.668,15.732-10.458,24.678-13.746a133.309,133.309,0,0,1,14.857-4.4c-.434,2.578-.828,5.007-1.253,7.431a223.218,223.218,0,0,0-3.162,28.556c-.035.617-.144,3.492-.144,3.492s-.843.232-1.469.412c-8.541,2.454-16.868,5.461-24.567,9.984C541.291,312.81,540.921,313.126,540.528,313.408Z" transform="translate(-198.008 24.031)" fill="#b77a2a"/>
    </g>
    <g id="Group_6" data-name="Group 6" transform="translate(518 540)">
      <path id="Path_1" data-name="Path 1" d="M319.046,455.881H327.3v37.558a19.116,19.116,0,0,1-1.662,8.078,17.1,17.1,0,0,1-4.393,5.951,24.619,24.619,0,0,1-6.423,3.9,33.848,33.848,0,0,1-7.554,2.231,47.161,47.161,0,0,1-7.963.661,49.84,49.84,0,0,1-7.942-.7,34.239,34.239,0,0,1-7.553-2.231,24.828,24.828,0,0,1-6.445-3.884,16.85,16.85,0,0,1-4.39-5.929,19.1,19.1,0,0,1-1.663-8.078V455.881H279.6v36.4a12.668,12.668,0,0,0,1.642,6.447,13.045,13.045,0,0,0,4.432,4.607,22.7,22.7,0,0,0,6.281,2.686,29.669,29.669,0,0,0,14.736,0,22.718,22.718,0,0,0,6.28-2.686,13.09,13.09,0,0,0,4.432-4.607,12.686,12.686,0,0,0,1.642-6.447Z" transform="translate(-271.309 -455.26)" fill="#6d6e70"/>
      <path id="Path_2" data-name="Path 2" d="M347.922,506.38H385.85v7.313H339.632V455.847h8.29Z" transform="translate(-254.583 -455.269)" fill="#6d6e70"/>
      <path id="Path_3" data-name="Path 3" d="M435.316,455.847v7.313H413.151v50.532h-8.292V463.16H382.653v-7.313Z" transform="translate(-244.05 -455.269)" fill="#6d6e70"/>
      <path id="Path_4" data-name="Path 4" d="M508.962,513.692h-9.9l-18.731-20.907H452.292v20.907H444V455.847h39.542a17.922,17.922,0,0,1,13.259,5.145q5.129,5.145,5.13,13.325a18.79,18.79,0,0,1-3.366,11.258,16.678,16.678,0,0,1-9.112,6.385Zm-56.67-50.532v22.684h29.731a11.663,11.663,0,0,0,8.435-3.058,12.434,12.434,0,0,0,.02-16.589,11.69,11.69,0,0,0-8.455-3.038Z" transform="translate(-229.032 -455.269)" fill="#6d6e70"/>
      <path id="Path_5" data-name="Path 5" d="M569.6,513.692l-6.486-12.353H524.49L518,513.692h-8.456l30.374-57.845H547.8l30.251,57.845Zm-41.253-19.709h30.868l-15.434-29.377Z" transform="translate(-212.984 -455.269)" fill="#6d6e70"/>
      <path id="Path_6" data-name="Path 6" d="M630.859,506.7a33.137,33.137,0,0,0,14.754-3.182,21.1,21.1,0,0,0,9.627-8.925l8.086,1.529a28.023,28.023,0,0,1-12.5,13.346,40.236,40.236,0,0,1-19.968,4.918,42.408,42.408,0,0,1-17.714-3.637,30.732,30.732,0,0,1-12.786-10.432,27.392,27.392,0,0,1,0-30.865,30.738,30.738,0,0,1,12.786-10.432,42.411,42.411,0,0,1,17.714-3.637,40.261,40.261,0,0,1,19.968,4.916,28.031,28.031,0,0,1,12.5,13.347l-8.086,1.528a21.1,21.1,0,0,0-9.627-8.924,33.148,33.148,0,0,0-14.754-3.181,34.556,34.556,0,0,0-13.608,2.581,22.613,22.613,0,0,0-9.729,7.6,20.439,20.439,0,0,0,0,23.262,22.6,22.6,0,0,0,9.729,7.6A34.535,34.535,0,0,0,630.859,506.7Z" transform="translate(-191.918 -455.383)" fill="#6d6e70"/>
      <path id="Path_7" data-name="Path 7" d="M721.992,513.692l-6.486-12.353H676.881l-6.486,12.353h-8.455l30.376-57.845H700.2l30.25,57.845Zm-41.253-19.709h30.868l-15.434-29.377Z" transform="translate(-175.677 -455.269)" fill="#6d6e70"/>
      <path id="Path_8" data-name="Path 8" d="M772,455.847a17.92,17.92,0,0,1,13.258,5.145q5.131,5.145,5.131,13.325,0,8.223-5.131,13.345T772,492.786h-30v20.907H733.7V455.847Zm-1.518,30a11.663,11.663,0,0,0,8.435-3.058,12.438,12.438,0,0,0,.021-16.589,11.694,11.694,0,0,0-8.456-3.038H741.993v22.684Z" transform="translate(-158.108 -455.269)" fill="#6d6e70"/>
      <path id="Path_9" data-name="Path 9" d="M806.222,455.847v57.845H797.93V455.847Z" transform="translate(-142.384 -455.269)" fill="#6d6e70"/>
      <path id="Path_10" data-name="Path 10" d="M875.661,455.847v7.313H853.494v50.532H845.2V463.16H823v-7.313Z" transform="translate(-136.248 -455.269)" fill="#6d6e70"/>
      <path id="Path_11" data-name="Path 11" d="M932.2,513.692l-6.486-12.353H887.091l-6.485,12.353h-8.457l30.375-57.845h7.881l30.251,57.845ZM890.95,493.984h30.865l-15.433-29.377Z" transform="translate(-124.215 -455.269)" fill="#6d6e70"/>
      <path id="Path_12" data-name="Path 12" d="M951.871,506.38H989.8v7.313h-46.22V455.847h8.293Z" transform="translate(-106.727 -455.269)" fill="#6d6e70"/>
    </g>
  </g>
</svg>
